<svg width="38" height="38" viewBox="0 0 38 38" fill="none" xmlns="http://www.w3.org/2000/svg">
<path d="M34.5508 0.488281H4.28971C2.43834 0.488281 0.894531 2.02995 0.894531 3.87874V34.0978C0.894531 35.9466 2.43834 37.4883 4.28971 37.4883H34.5508C36.4022 37.4883 37.946 35.9466 37.946 34.0978V3.87874C37.946 2.02995 36.4022 0.488281 34.5508 0.488281ZM11.7012 31.3216H5.52596V14.3633H11.7012V31.3216ZM8.61359 12.3579C6.76222 12.3579 5.52596 11.1234 5.52596 9.58171C5.52596 7.88948 6.76222 6.65495 8.61359 6.65495C10.465 6.65495 11.7012 7.88948 11.7012 9.43115C11.7012 11.1234 10.465 12.3579 8.61359 12.3579ZM33.3146 31.3216H27.1393V22.0716C27.1393 19.6025 25.4387 18.9883 24.9804 18.9883C24.516 18.9883 22.5079 19.2954 22.5079 22.0716C22.5079 22.3787 22.5079 31.3216 22.5079 31.3216H16.3326V14.3633H22.5079V16.8324C23.4366 15.4412 24.9804 14.3633 27.9112 14.3633C30.8421 14.3633 33.3146 16.6758 33.3146 22.0716V31.3216Z" fill="#AEA0AF"/>
</svg>
