<svg width="32" height="32" viewBox="0 0 32 32" fill="none" xmlns="http://www.w3.org/2000/svg">
<path d="M30.0961 21.9531C27.9055 21.9531 25.8026 21.6031 23.8399 20.9556C23.2265 20.7631 22.5431 20.9031 22.0524 21.3756L18.197 25.2256C13.2377 22.7056 9.172 18.6631 6.6485 13.6931L10.5039 9.82562C10.9945 9.37062 11.1347 8.68813 10.942 8.07563C10.2936 6.11563 9.94307 4.01562 9.94307 1.82812C9.94307 0.865625 9.15448 0.078125 8.19064 0.078125H2.05712C1.09328 0.078125 0.304688 0.865625 0.304688 1.82812C0.304688 18.2606 13.6407 31.5781 30.0961 31.5781C31.0599 31.5781 31.8485 30.7906 31.8485 29.8281V23.7031C31.8485 22.7406 31.0599 21.9531 30.0961 21.9531ZM28.3436 15.8281H31.8485C31.8485 7.13063 24.7862 0.078125 16.0766 0.078125V3.57812C22.8585 3.57812 28.3436 9.05562 28.3436 15.8281ZM21.3339 15.8281H24.8388C24.8388 10.9981 20.9133 7.07812 16.0766 7.07812V10.5781C18.9856 10.5781 21.3339 12.9231 21.3339 15.8281Z" fill="#AEA0AF"/>
</svg>
