<svg width="49" height="38" viewBox="0 0 49 38" fill="none" xmlns="http://www.w3.org/2000/svg">
<path d="M47.5124 13.0458C47.8738 12.7471 48.4113 13.0266 48.4113 13.4987L48.4113 33.2031C48.4113 35.7565 46.419 37.8281 43.9634 37.8281L5.41472 37.8281C2.9591 37.8281 0.966797 35.7565 0.966797 33.2031L0.966797 13.5083C0.966797 13.0266 1.49499 12.7568 1.86565 13.0555C3.94134 14.732 6.6935 16.8615 16.1453 24.0013C18.1006 25.4852 21.3994 28.607 24.689 28.5878C27.9972 28.6167 31.3609 25.4273 33.242 24.0013C42.6939 16.8615 45.4368 14.7224 47.5124 13.0458ZM24.689 25.4948C26.8389 25.5333 29.9339 22.6812 31.4907 21.5057C43.7873 12.2268 44.7232 11.4174 47.5588 9.10495C48.0962 8.67135 48.4113 7.99687 48.4113 7.28385L48.4113 5.45313C48.4113 2.89974 46.419 0.828125 43.9634 0.828125L5.41472 0.828125C2.9591 0.828125 0.966797 2.89974 0.966797 5.45312L0.966797 7.28385C0.966797 7.99687 1.28186 8.66172 1.81932 9.10495C4.65487 11.4078 5.59078 12.2268 17.8874 21.5057C19.4442 22.6812 22.5392 25.5333 24.689 25.4948Z" fill="#AEA0AF"/>
</svg>
