<svg width="38" height="38" viewBox="0 0 38 38" fill="none" xmlns="http://www.w3.org/2000/svg">
<path d="M34.5508 0.828125H4.28971C2.43834 0.828125 0.894531 2.36979 0.894531 4.21859V34.4377C0.894531 36.2865 2.43834 37.8281 4.28971 37.8281H34.5508C36.4022 37.8281 37.946 36.2865 37.946 34.4377V4.21859C37.946 2.36979 36.4022 0.828125 34.5508 0.828125ZM11.7012 31.6615H5.52596V14.7031H11.7012V31.6615ZM8.61359 12.6978C6.76222 12.6978 5.52596 11.4632 5.52596 9.92155C5.52596 8.22933 6.76222 6.99479 8.61359 6.99479C10.465 6.99479 11.7012 8.22933 11.7012 9.771C11.7012 11.4632 10.465 12.6978 8.61359 12.6978ZM33.3146 31.6615H27.1393V22.4115C27.1393 19.9424 25.4387 19.3281 24.9804 19.3281C24.516 19.3281 22.5079 19.6353 22.5079 22.4115C22.5079 22.7186 22.5079 31.6615 22.5079 31.6615H16.3326V14.7031H22.5079V17.1722C23.4366 15.7811 24.9804 14.7031 27.9112 14.7031C30.8421 14.7031 33.3146 17.0156 33.3146 22.4115V31.6615Z" fill="#AEA0AF"/>
</svg>
