<svg width="49" height="38" viewBox="0 0 49 38" fill="none" xmlns="http://www.w3.org/2000/svg">
<path d="M47.5124 12.706C47.8738 12.4073 48.4113 12.6867 48.4113 13.1589L48.4113 32.8633C48.4113 35.4167 46.419 37.4883 43.9634 37.4883L5.41472 37.4883C2.9591 37.4883 0.966797 35.4167 0.966797 32.8633L0.966797 13.1685C0.966797 12.6867 1.49499 12.4169 1.86565 12.7156C3.94134 14.3922 6.6935 16.5216 16.1453 23.6615C18.1006 25.1453 21.3994 28.2672 24.689 28.2479C27.9972 28.2768 31.3609 25.0875 33.242 23.6615C42.6939 16.5216 45.4368 14.3826 47.5124 12.706ZM24.689 25.1549C26.8389 25.1935 29.9339 22.3414 31.4907 21.1659C43.7873 11.887 44.7232 11.0776 47.5588 8.7651C48.0962 8.33151 48.4113 7.65703 48.4113 6.94401L48.4113 5.11328C48.4113 2.5599 46.419 0.488281 43.9634 0.488281L5.41472 0.488281C2.9591 0.488281 0.966797 2.5599 0.966797 5.11328L0.966797 6.94401C0.966797 7.65703 1.28186 8.32187 1.81932 8.7651C4.65487 11.068 5.59078 11.887 17.8874 21.1659C19.4442 22.3414 22.5392 25.1935 24.689 25.1549Z" fill="#AEA0AF"/>
</svg>
