<svg width="32" height="33" viewBox="0 0 32 33" fill="none" xmlns="http://www.w3.org/2000/svg">
<path d="M30.0961 22.6133C27.9055 22.6133 25.8026 22.2633 23.8399 21.6158C23.2265 21.4233 22.5431 21.5633 22.0524 22.0358L18.197 25.8858C13.2377 23.3658 9.172 19.3233 6.6485 14.3533L10.5039 10.4858C10.9945 10.0308 11.1347 9.34828 10.942 8.73578C10.2936 6.77578 9.94307 4.67578 9.94307 2.48828C9.94307 1.52578 9.15448 0.738281 8.19064 0.738281H2.05712C1.09328 0.738281 0.304688 1.52578 0.304688 2.48828C0.304688 18.9208 13.6407 32.2383 30.0961 32.2383C31.0599 32.2383 31.8485 31.4508 31.8485 30.4883V24.3633C31.8485 23.4008 31.0599 22.6133 30.0961 22.6133ZM28.3436 16.4883H31.8485C31.8485 7.79078 24.7862 0.738281 16.0766 0.738281V4.23828C22.8585 4.23828 28.3436 9.71578 28.3436 16.4883ZM21.3339 16.4883H24.8388C24.8388 11.6583 20.9133 7.73828 16.0766 7.73828V11.2383C18.9856 11.2383 21.3339 13.5833 21.3339 16.4883Z" fill="#AEA0AF"/>
</svg>
